# Blender 3.6.4
# www.blender.org
mtllib test.mtl
o Cube
v 0.403879 1.000000 -0.403879
v 1.000000 -1.000000 -1.000000
v 0.403879 1.000000 0.403879
v 1.000000 -1.000000 1.000000
v -0.403879 1.000000 -0.403879
v -1.000000 -1.000000 -1.000000
v -0.403879 1.000000 0.403879
v -1.000000 -1.000000 1.000000
v 1.000000 1.000000 1.000000
v -1.000000 1.000000 1.000000
v 1.000000 1.000000 -1.000000
v -1.000000 1.000000 -1.000000
v 0.284979 2.035294 0.284979
v -0.284979 2.035294 0.284979
v 0.284979 2.035294 -0.284979
v -0.284979 2.035294 -0.284979
v 0.403879 1.876453 0.403879
v -0.403879 1.876453 0.403879
v 0.403879 1.876453 -0.403879
v -0.403879 1.876453 -0.403879
v -0.342955 0.450944 1.000000
v -0.342955 0.450944 -1.000000
v 0.805766 0.450944 1.000000
v 0.805766 0.450944 -1.000000
v 0.805766 -0.840180 -1.000000
v 0.805766 -0.840180 1.000000
v -0.342955 -0.836355 1.000000
v -0.342955 -0.840180 -1.000000
v -0.342955 -0.840180 1.000000
vn -0.0000 -0.0000 1.0000
vn -1.0000 -0.0000 -0.0000
vn -0.0000 -1.0000 -0.0000
vn 1.0000 -0.0000 -0.0000
vn -0.0000 -0.0000 -1.0000
vn -0.0000 1.0000 -0.0000
vn -0.0000 0.5993 0.8006
vn 0.8006 0.5993 -0.0000
vn -0.8006 0.5993 -0.0000
vn -0.0000 0.5993 -0.8006
vt 0.699515 0.675485
vt 0.800485 0.675485
vt 0.375000 0.750000
vt 0.394978 0.917869
vt 0.375000 1.000000
vt 0.625000 0.000000
vt 0.375000 0.250000
vt 0.375000 0.000000
vt 0.375000 0.500000
vt 0.125000 0.750000
vt 0.125000 0.500000
vt 0.625000 0.500000
vt 0.394977 0.332131
vt 0.625000 0.750000
vt 0.699515 0.574515
vt 0.800485 0.574515
vt 0.875000 0.750000
vt 0.875000 0.500000
vt 0.785622 0.589378
vt 0.714378 0.660622
vt 0.714378 0.589378
vt 0.785622 0.660622
vt 0.000000 0.000000
vt 0.556368 0.332131
vt 0.625000 0.250000
vt 0.556368 0.917869
vt 0.625000 1.000000
vt 0.556368 0.774279
vt 0.394977 0.774279
vt 0.395456 0.917869
vt 0.394978 0.475721
vt 0.556368 0.475721
s 1
usemtl Material.001
f 3/1/1 18/2/1 7/2/1
f 4/3/1 29/4/1 8/5/1
f 10/6/2 6/7/2 8/8/2
f 2/9/3 8/10/3 6/11/3
f 11/12/4 4/3/4 2/9/4
f 6/7/5 28/13/5 2/9/5
f 7/2/6 9/14/6 3/1/6
f 3/1/6 11/12/6 1/15/6
f 5/16/6 10/17/6 7/2/6
f 1/15/6 12/18/6 5/16/6
f 16/19/6 13/20/6 15/21/6
f 5/16/5 19/15/5 1/15/5
f 1/15/4 17/1/4 3/1/4
f 7/2/2 20/16/2 5/16/2
f 14/22/7 17/1/7 13/20/7
f 13/20/8 19/15/8 15/21/8
f 16/19/9 18/2/9 14/22/9
f 15/21/10 20/16/10 16/19/10
f 26/23/2 24/23/2 25/23/2
f 23/23/3 22/23/3 24/23/3
f 22/24/5 12/25/5 11/12/5
f 27/23/4 29/23/4 28/23/4
f 21/26/1 9/14/1 10/27/1
f 29/23/6 25/23/6 28/23/6
f 3/1/1 17/1/1 18/2/1
f 4/3/1 9/14/1 23/28/1
f 4/3/1 23/28/1 26/29/1
f 29/4/1 27/30/1 8/5/1
f 4/3/1 26/29/1 29/4/1
f 10/6/2 12/25/2 6/7/2
f 2/9/3 4/3/3 8/10/3
f 11/12/4 9/14/4 4/3/4
f 6/7/5 12/25/5 22/24/5
f 28/13/5 25/31/5 2/9/5
f 6/7/5 22/24/5 28/13/5
f 7/2/6 10/17/6 9/14/6
f 3/1/6 9/14/6 11/12/6
f 5/16/6 12/18/6 10/17/6
f 1/15/6 11/12/6 12/18/6
f 16/19/6 14/22/6 13/20/6
f 5/16/5 20/16/5 19/15/5
f 1/15/4 19/15/4 17/1/4
f 7/2/2 18/2/2 20/16/2
f 14/22/7 18/2/7 17/1/7
f 13/20/8 17/1/8 19/15/8
f 16/19/9 20/16/9 18/2/9
f 15/21/10 19/15/10 20/16/10
f 26/23/2 23/23/2 24/23/2
f 23/23/3 21/23/3 22/23/3
f 11/12/5 2/9/5 24/32/5
f 2/9/5 25/31/5 24/32/5
f 24/32/5 22/24/5 11/12/5
f 28/23/4 22/23/4 27/23/4
f 22/23/4 21/23/4 27/23/4
f 10/27/1 8/5/1 21/26/1
f 8/5/1 27/30/1 21/26/1
f 21/26/1 23/28/1 9/14/1
f 29/23/6 26/23/6 25/23/6
