# Blender 5.0.0
# www.blender.org
mtllib base.mtl
o base.009
v -15.604983 0.088745 0.000001
v -14.874186 2.838200 0.000001
v -13.361015 0.088745 -5.417421
v -12.173090 3.498589 -5.178679
v -7.943594 0.088745 -7.661393
v -8.614768 3.498589 -6.652585
v -2.526172 0.088745 -5.417425
v -3.042925 2.838200 -4.900672
v -0.282201 0.088745 -0.000004
v -1.012999 2.838200 -0.000003
v -15.604983 2.838200 0.000001
v -13.361015 2.838200 -5.417421
v -7.943594 2.838200 -7.661393
v -2.526172 2.838200 -5.417425
v -0.282201 2.838200 -0.000004
v -14.874186 7.176506 0.000001
v -12.173090 6.516117 -5.178679
v -8.614768 6.516117 -6.652585
v -3.042925 7.176506 -4.900672
v -1.012999 7.176506 -0.000003
v -15.567245 7.176506 0.000001
v -13.334330 7.176506 -5.390736
v -7.943594 7.176506 -7.623654
v -2.552858 7.176506 -5.390739
v -0.319940 7.176506 -0.000004
v -15.567245 9.163218 0.000001
v -13.334330 9.163218 -5.390736
v -7.943594 9.163218 -7.623654
v -2.552858 9.163218 -5.390739
v -0.319940 9.163218 -0.000004
v -14.483000 0.088745 -2.708710
v -14.483000 2.838200 -2.708710
v -13.859224 2.838200 -2.450334
v -13.859224 7.176506 -2.450334
v -14.450788 7.176506 -2.695367
v -14.450788 9.163218 -2.695367
v -1.404186 0.088745 -2.708714
v -1.404186 2.838200 -2.708714
v -2.027961 2.838200 -2.450338
v -2.027961 7.176506 -2.450338
v -1.436399 7.176506 -2.695371
v -1.436399 9.163218 -2.695371
v -14.178960 2.838200 -2.582773
v -15.220264 2.838200 0.000001
v -0.666919 2.838200 -0.000004
v -14.178960 7.176506 -2.582773
v -15.220264 7.176506 0.000001
v -0.666919 7.176506 -0.000004
v -1.708226 2.838200 -2.582777
v -1.708226 7.176506 -2.582777
v -7.943594 2.838200 -6.930594
v -12.844263 2.838200 -4.900669
v -7.943594 7.176506 -6.930594
v -12.844263 7.176506 -4.900669
v -8.290561 3.219109 -6.786876
v -12.497297 3.219109 -5.044387
v -8.290561 6.795598 -6.786876
v -12.497297 6.795598 -5.044387
v -8.480597 3.498589 -6.328669
v -12.038919 3.498589 -4.854763
v -8.480597 6.516117 -6.328669
v -12.038919 6.516117 -4.854763
v -13.361012 0.088745 5.417422
v -12.173086 3.498589 5.178679
v -7.943590 0.088745 7.661390
v -8.614764 3.498589 6.652583
v -2.526169 0.088745 5.417419
v -3.042921 2.838200 4.900666
v -13.361012 2.838200 5.417422
v -7.943590 2.838200 7.661390
v -2.526169 2.838200 5.417419
v -12.173086 6.516117 5.178679
v -8.614764 6.516117 6.652583
v -3.042921 7.176506 4.900666
v -13.334326 7.176506 5.390737
v -7.943590 7.176506 7.623651
v -2.552854 7.176506 5.390733
v -13.334326 9.163218 5.390737
v -7.943590 9.163218 7.623651
v -2.552854 9.163218 5.390733
v -14.482998 0.088745 2.708712
v -14.482998 2.838200 2.708712
v -13.859222 2.838200 2.450335
v -13.859222 7.176506 2.450335
v -14.450786 7.176506 2.695369
v -14.450786 9.163218 2.695369
v -1.404184 0.088745 2.708708
v -1.404184 2.838200 2.708708
v -2.027960 2.838200 2.450331
v -2.027960 7.176506 2.450331
v -1.436397 7.176506 2.695365
v -1.436397 9.163218 2.695365
v -14.178958 2.838200 2.582774
v -14.178958 7.176506 2.582774
v -1.708224 2.838200 2.582770
v -1.708224 7.176506 2.582770
v -7.943590 2.838200 6.930592
v -12.844259 2.838200 4.900670
v -7.943590 7.176506 6.930592
v -12.844259 7.176506 4.900670
v -8.290557 3.219109 6.786874
v -12.497293 3.219109 5.044388
v -8.290557 6.795598 6.786874
v -12.497293 6.795598 5.044388
v -8.480594 3.498589 6.328667
v -12.038916 3.498589 4.854763
v -8.480594 6.516117 6.328667
v -12.038916 6.516117 4.854763
v -9.840873 12.233171 -5.839313
v -2.976371 12.233170 -3.608864
v -2.976368 12.233170 3.608854
v -9.840869 12.233171 5.839308
v -14.083414 12.233142 -0.000001
v -7.943596 16.027748 -0.000003
v -14.472165 9.163216 -2.121228
v -14.472163 9.163216 2.121227
v -7.943598 9.163216 -6.864536
v -11.978472 9.163216 -5.553524
v -1.415027 9.163216 -2.121233
v -3.908723 9.163216 -5.553527
v -3.908720 9.163216 5.553518
v -1.415026 9.163216 2.121222
v -11.978468 9.163216 5.553521
v -7.943594 9.163216 6.864530
v -12.667695 12.772149 -3.432247
v -6.139126 12.772160 -5.553492
v -2.104295 12.772147 -0.000005
v -6.139122 12.772160 5.553484
v -12.667693 12.772149 3.432244
v -9.058779 15.002562 -3.432237
v -11.552485 15.002542 -0.000002
v -5.023954 15.002560 -2.121223
v -5.023953 15.002560 2.121215
v -9.058777 15.002562 3.432232
v -1.741531 0.451005 2.387196
v -1.741532 0.451005 -2.387200
v 10.025279 0.451005 2.387196
v 10.025277 0.451005 -2.387201
v -1.741531 5.486275 2.387196
v -1.741532 6.068997 1.804473
v -1.741532 6.068997 -1.804478
v -1.741532 5.486275 -2.387200
v 10.025279 6.068997 1.804474
v 10.025279 5.486275 2.387196
v 10.025277 5.486275 -2.387201
v 10.025277 6.068997 -1.804478
v -1.741531 0.088745 2.710516
v -1.741531 1.451004 2.710516
v -1.741532 0.088745 -2.710520
v -1.741532 1.451004 -2.710520
v 10.025271 0.088745 2.710516
v 10.025271 1.451004 2.710516
v 10.025271 0.088745 -2.710520
v 10.025271 1.451004 -2.710520
v 7.560142 1.371821 -2.101519
v 7.560142 13.592107 -2.101519
v 13.007919 1.371821 -4.549366
v 13.007919 13.592108 -4.549366
v 9.377301 13.592107 1.942634
v 14.825077 13.592107 -0.505213
v 12.085768 -0.088744 4.411108
v 9.558589 1.371821 2.346102
v 15.006367 1.371821 -0.101746
v 14.872235 -0.088744 3.159066
v 9.558589 13.149782 2.346102
v 12.201869 12.746166 3.865372
v 14.387094 12.746166 2.883487
v 15.006367 13.149782 -0.101746
v 6.961520 -0.088744 -3.433774
v 12.409298 -0.088744 -5.881620
v 10.390536 14.602464 2.644179
v 14.676798 14.602464 0.718234
v 15.604988 -0.088744 1.230509
v 14.965584 13.897861 1.360938
v 10.679320 13.897861 3.286882
v 10.157210 -0.088744 3.678356
v 8.008078 13.592107 -2.302789
v 8.008078 1.371821 -2.302790
v 12.559985 13.592108 -4.348095
v 12.559985 1.371821 -4.348095
v 9.825236 13.592107 1.741364
v 14.377142 13.592107 -0.303942
v 14.558432 1.371821 0.099525
v 14.558432 13.149782 0.099525
v 10.006524 13.149782 2.144831
v 10.006524 1.371821 2.144831
v 15.073034 15.052672 0.046625
v 9.625258 15.052672 2.494473
v 15.604988 13.754768 1.230509
v 14.872235 12.295958 3.159066
v 12.085768 12.295958 4.411108
v 10.157210 13.754768 3.678356
v 10.578916 13.652885 3.063428
v 14.865179 13.652885 1.137483
v 14.576393 14.357488 0.494779
v 10.290132 14.357488 2.420724
v 14.286689 12.501190 2.660032
v 12.101464 12.501190 3.641917
v 7.283627 15.052672 -2.716915
v 6.961520 14.266772 -3.433774
v 7.189283 14.496957 -2.926878
v 12.409298 14.266772 -5.881620
v 12.731403 15.052672 -5.164762
v 12.637062 14.496957 -5.374725
v 5.828571 1.451001 5.430473
v 2.455187 1.451001 5.430473
v 6.529077 1.451006 1.484508
v 1.754680 1.451006 1.484510
v 5.828571 5.023849 5.430473
v 5.465661 5.386759 5.430473
v 2.818097 5.386759 5.430473
v 2.455186 5.023849 5.430473
v 5.946354 6.068997 1.484509
v 6.529077 5.486275 1.484508
v 1.754680 5.486275 1.484510
v 2.337403 6.068997 1.484510
v 6.852398 0.088745 5.625293
v 6.852397 1.451004 6.565174
v 1.431361 0.088745 5.625294
v 1.431361 1.451004 6.565175
v 6.852396 0.088745 1.484516
v 6.852396 1.451004 1.484516
v 1.431361 0.088745 1.484516
v 1.431361 1.451004 1.484516
v 6.852397 0.769875 6.565174
v 1.431361 0.769875 6.565175
v 1.431361 0.769875 1.484516
v 6.852396 0.769875 1.484516
v 1.431361 0.429310 5.625294
v 1.431361 0.429310 1.484516
v 6.852396 0.429310 1.484516
v 6.852398 0.429310 5.625293
v 6.852398 0.429310 7.539531
v 6.852398 0.769875 7.539531
v 1.431361 0.769875 7.539532
v 1.431361 0.429310 7.539532
v 6.852398 0.429310 7.580919
v 6.852398 0.769875 7.580919
v 1.431361 0.769875 7.580920
v 1.431361 0.429310 7.580920
v 1.754681 1.451006 5.430474
v 6.529078 1.451006 5.430473
v 1.754681 5.486275 5.430474
v 2.337403 6.068997 5.430473
v 5.946355 6.068997 5.430473
v 6.529078 5.486275 5.430473
v 2.455187 1.451001 5.186962
v 5.828571 1.451001 5.186962
v 2.455186 5.023849 5.186962
v 2.818097 5.386759 5.186962
v 5.465661 5.386759 5.186962
v 5.828571 5.023849 5.186962
vn -0.9239 -0.0000 -0.3827
vn -0.3827 -0.0000 -0.9239
vn 0.3827 -0.0000 -0.9239
vn 0.9239 -0.0000 -0.3827
vn -0.0000 -1.0000 -0.0000
vn -0.0000 1.0000 -0.0000
vn -0.9239 -0.0000 0.3827
vn -0.9275 -0.0000 -0.3739
vn 0.9275 -0.0000 -0.3739
vn -0.3827 -0.0000 0.9239
vn 0.3827 -0.0000 0.9239
vn 0.9239 -0.0000 0.3827
vn -0.9275 -0.0000 0.3739
vn 0.9275 -0.0000 0.3739
vn -0.4089 0.6617 -0.6284
vn 0.4713 0.6617 -0.5831
vn 0.7002 0.6617 0.2680
vn -0.0385 0.6617 0.7488
vn -0.7240 0.6617 0.1947
vn -0.2680 0.9435 0.1947
vn -0.4911 0.7947 0.3568
vn -0.4089 0.6617 0.6284
vn 0.1024 0.9435 0.3151
vn 0.1876 0.7947 0.5773
vn 0.4713 0.6617 0.5831
vn 0.3313 0.9435 -0.0000
vn 0.6071 0.7947 -0.0000
vn 0.7002 0.6617 -0.2680
vn 0.1024 0.9435 -0.3151
vn 0.1876 0.7947 -0.5773
vn -0.0385 0.6617 -0.7488
vn -0.2680 0.9435 -0.1947
vn -0.4911 0.7947 -0.3568
vn -0.7240 0.6617 -0.1947
vn -0.8897 0.3304 0.3151
vn -0.7947 0.1876 0.5773
vn -0.5746 0.3304 0.7488
vn 0.0247 0.3304 0.9435
vn 0.3035 0.1876 0.9342
vn 0.5346 0.3304 0.7779
vn 0.9050 0.3304 0.2680
vn 0.9822 0.1876 -0.0000
vn 0.9050 0.3304 -0.2680
vn 0.5346 0.3304 -0.7779
vn 0.3035 0.1876 -0.9342
vn 0.0247 0.3304 -0.9435
vn -0.5746 0.3304 -0.7488
vn -0.7947 0.1876 -0.5773
vn -0.8897 0.3304 -0.3151
vn -0.3066 0.1256 0.9435
vn 0.8026 0.1256 0.5831
vn 0.8026 0.1256 -0.5831
vn -0.3066 0.1256 -0.9435
vn -0.9921 0.1256 -0.0000
vn -0.0000 0.7071 -0.7071
vn -0.0000 0.7071 0.7071
vn -0.0000 -0.0000 1.0000
vn -1.0000 -0.0000 -0.0000
vn -0.0000 -0.0000 -1.0000
vn 1.0000 -0.0000 -0.0000
vn 0.9348 -0.0000 0.3552
vn -0.3552 -0.0000 0.9348
vn 0.4099 -0.0000 0.9122
vn 0.4099 -0.0000 0.9121
vn 0.5774 0.4082 -0.7070
vn -0.2898 0.7071 -0.6450
vn 0.9121 -0.0000 -0.4099
vn -0.9122 -0.0000 0.4099
vn 0.9122 -0.0000 -0.4099
vn -0.4099 -0.0000 -0.9122
vn -0.2898 -0.7071 -0.6450
vn -0.4099 -0.0000 -0.9121
vn 0.2898 0.7071 0.6450
vn 0.2898 -0.7071 0.6450
vn -0.9121 -0.0000 0.4099
vn -0.9121 0.4082 -0.0377
vn -0.7071 0.7071 -0.0000
vn 0.7071 0.7071 -0.0000
vn 0.7071 -0.7071 -0.0000
vn -0.7071 -0.7071 -0.0000
vt 0.868783 0.366181
vt 0.868783 0.380853
vt 0.866949 0.380853
vt 0.866949 0.366181
vt 0.863281 0.380853
vt 0.863281 0.366181
vt 0.859613 0.380853
vt 0.859613 0.366181
vt 0.857779 0.366181
vt 0.857779 0.380853
vt 0.855945 0.380853
vt 0.855945 0.366181
vt 0.863575 0.358845
vt 0.877660 0.358845
vt 0.876628 0.356356
vt 0.875597 0.353866
vt 0.870617 0.351803
vt 0.865637 0.353866
vt 0.864606 0.356356
vt 0.861383 0.356593
vt 0.860450 0.354341
vt 0.860925 0.353866
vt 0.861956 0.356356
vt 0.855945 0.352475
vt 0.855945 0.351803
vt 0.851441 0.354341
vt 0.850965 0.353866
vt 0.850508 0.356593
vt 0.849575 0.358845
vt 0.848903 0.358845
vt 0.849934 0.356356
vt 0.642456 0.871919
vt 0.646961 0.870053
vt 0.641523 0.874171
vt 0.860468 0.348824
vt 0.860468 0.348824
vt 0.862316 0.358845
vt 0.651466 0.871919
vt 0.652399 0.874171
vt 0.862988 0.358845
vt 0.870617 0.366181
vt 0.870617 0.380853
vt 0.880914 0.387843
vt 0.881847 0.390095
vt 0.869106 0.390095
vt 0.870039 0.387843
vt 0.651147 0.871787
vt 0.647280 0.870185
vt 0.647280 0.870185
vt 0.651147 0.871787
vt 0.863739 0.350179
vt 0.860170 0.348701
vt 0.864037 0.350302
vt 0.863739 0.350179
vt 0.864037 0.350302
vt 0.860170 0.348701
vt 0.327265 0.862496
vt 0.330536 0.863851
vt 0.330536 0.863851
vt 0.327265 0.862496
vt 0.594536 0.888023
vt 0.602325 0.888023
vt 0.598430 0.894769
vt 0.578957 0.888023
vt 0.586746 0.888023
vt 0.582852 0.894769
vt 0.641271 0.888023
vt 0.649061 0.888023
vt 0.645166 0.894769
vt 0.625693 0.888023
vt 0.633482 0.888023
vt 0.629587 0.894769
vt 0.610114 0.888023
vt 0.617904 0.888023
vt 0.614009 0.894769
vt 0.621798 0.894769
vt 0.617904 0.901514
vt 0.637377 0.894769
vt 0.633482 0.901514
vt 0.652955 0.894769
vt 0.649061 0.901514
vt 0.656850 0.888023
vt 0.590641 0.894769
vt 0.586747 0.901514
vt 0.606220 0.894769
vt 0.602325 0.901514
vt 0.614009 0.881277
vt 0.621798 0.881277
vt 0.629587 0.881277
vt 0.637377 0.881277
vt 0.645166 0.881277
vt 0.652955 0.881277
vt 0.582852 0.881277
vt 0.590641 0.881277
vt 0.598430 0.881277
vt 0.606220 0.881277
vt 0.660745 0.881277
vt 0.582528 0.861196
vt 0.607086 0.861196
vt 0.607086 0.885754
vt 0.582528 0.885754
vt 0.631644 0.835139
vt 0.631644 0.863194
vt 0.628647 0.861196
vt 0.628647 0.836637
vt 0.631644 0.883756
vt 0.631644 0.910312
vt 0.628647 0.910312
vt 0.628647 0.885754
vt 0.607086 0.910312
vt 0.607086 0.812079
vt 0.628647 0.812079
vt 0.631644 0.815076
vt 0.607086 0.836637
vt 0.656203 0.864193
vt 0.656203 0.882757
vt 0.885428 0.329886
vt 0.895871 0.329886
vt 0.895871 0.340330
vt 0.885428 0.340330
vt 0.895871 0.350773
vt 0.885428 0.350773
vt 0.895871 0.361217
vt 0.885428 0.361217
vt 0.874984 0.340330
vt 0.874984 0.350773
vt 0.906315 0.340330
vt 0.906315 0.350773
vt 0.856618 0.397377
vt 0.873492 0.398346
vt 0.871714 0.404794
vt 0.855115 0.403291
vt 0.872603 0.418742
vt 0.856618 0.418742
vt 0.856618 0.414234
vt 0.871714 0.414234
vt 0.858399 0.394544
vt 0.858398 0.384779
vt 0.838162 0.381829
vt 0.856618 0.381829
vt 0.842670 0.400286
vt 0.838162 0.397377
vt 0.873294 0.385040
vt 0.872955 0.416537
vt 0.872061 0.413057
vt 0.872190 0.405372
vt 0.872755 0.395518
vt 0.872755 0.350738
vt 0.858399 0.350738
vt 0.856618 0.347826
vt 0.873492 0.347826
vt 0.858398 0.360461
vt 0.856618 0.363373
vt 0.873294 0.351620
vt 0.875075 0.350414
vt 0.873294 0.394752
vt 0.875075 0.396621
vt 0.608817 0.863853
vt 0.623173 0.863853
vt 0.623713 0.864735
vt 0.623713 0.873576
vt 0.608817 0.873576
vt 0.608817 0.897894
vt 0.623713 0.898155
vt 0.623713 0.907867
vt 0.623173 0.908633
vt 0.608817 0.907659
vt 0.873294 0.360461
vt 0.874255 0.416456
vt 0.874488 0.399505
vt 0.875075 0.418742
vt 0.873588 0.400361
vt 0.637958 0.874721
vt 0.637325 0.890897
vt 0.636431 0.887417
vt 0.636561 0.879732
vt 0.638858 0.873865
vt 0.638625 0.890817
vt 0.874915 0.362589
vt 0.874117 0.363373
vt 0.874397 0.362265
vt 0.874117 0.381829
vt 0.874955 0.382940
vt 0.874397 0.383051
vt 0.893531 0.383396
vt 0.893531 0.394789
vt 0.628218 0.835879
vt 0.608081 0.835686
vt 0.890649 0.329886
vt 0.890649 0.340330
vt 0.890649 0.350773
vt 0.890649 0.361217
vt 0.895871 0.355995
vt 0.888039 0.329886
vt 0.888039 0.350773
vt 0.888039 0.361217
vt 0.888039 0.340330
vt 0.890649 0.358606
vt 0.630667 0.834456
vt 0.630667 0.815514
vt 0.628218 0.813051
vt 0.608081 0.813043
vt 0.860763 0.130957
vt 0.880900 0.130964
vt 0.883349 0.133427
vt 0.883349 0.152369
vt 0.880900 0.153793
vt 0.860763 0.153600
s 0
usemtl Lander
f 31/1/1 32/2/1 12/3/1 3/4/1
f 3/4/2 12/3/2 13/5/2 5/6/2
f 5/6/3 13/5/3 14/7/3 7/8/3
f 37/9/4 38/10/4 15/11/4 9/12/4
f 9/13/5 1/14/5 31/15/5 3/16/5 5/17/5 7/18/5 37/19/5
f 33/20/6 52/21/6 12/22/6 32/23/6
f 52/21/6 51/24/6 13/25/6 12/22/6
f 51/24/6 8/26/6 14/27/6 13/25/6
f 39/28/6 10/29/6 15/30/6 38/31/6
f 8/32/3 51/33/3 53/33/3 19/32/3
f 40/28/6 20/29/6 48/29/6 50/28/6
f 39/34/4 8/32/4 19/32/4 40/34/4
f 18/35/7 6/36/7 59/36/7 61/35/7
f 35/20/1 21/37/1 26/37/1 36/20/1
f 40/28/5 19/26/5 24/26/5 41/28/5
f 53/24/5 54/21/5 22/21/5 23/24/5
f 19/26/5 53/24/5 23/24/5 24/26/5
f 34/20/5 16/37/5 21/37/5 35/20/5
f 26/37/6 30/29/6 42/28/6 29/26/6 28/24/6 27/21/6 36/20/6
f 41/28/4 24/26/4 29/26/4 42/28/4
f 23/24/2 22/21/2 27/21/2 28/24/2
f 24/26/3 23/24/3 28/24/3 29/26/3
f 16/37/6 34/20/6 46/20/6 47/37/6
f 54/21/5 34/20/5 35/20/5 22/21/5
f 22/21/1 35/20/1 36/20/1 27/21/1
f 52/38/1 33/39/1 34/39/1 54/38/1
f 2/37/6 33/20/6 32/23/6 11/40/6
f 1/41/1 11/42/1 32/2/1 31/1/1
f 25/29/4 41/28/4 42/28/4 30/29/4
f 20/29/5 40/28/5 41/28/5 25/29/5
f 10/29/5 39/28/5 49/28/5 45/29/5
f 8/26/6 39/28/6 38/31/6 14/27/6
f 7/8/4 14/7/4 38/10/4 37/9/4
f 43/43/8 44/44/8 47/44/8 46/43/8
f 45/45/9 49/46/9 50/46/9 48/45/9
f 34/43/3 33/43/3 43/43/3 46/43/3
f 33/20/5 2/37/5 44/37/5 43/20/5
f 39/46/2 40/46/2 50/46/2 49/46/2
f 56/47/2 55/48/2 51/33/2 52/38/2
f 57/49/2 58/50/2 54/38/2 53/33/2
f 55/48/2 57/49/2 53/33/2 51/33/2
f 58/50/2 56/47/2 52/38/2 54/38/2
f 4/51/2 6/36/2 55/52/2 56/53/2
f 18/35/2 17/54/2 58/55/2 57/56/2
f 6/36/2 18/35/2 57/56/2 55/52/2
f 17/54/2 4/51/2 56/53/2 58/55/2
f 59/57/2 60/58/2 62/59/2 61/60/2
f 6/36/6 4/51/6 60/51/6 59/36/6
f 4/51/4 17/54/4 62/54/4 60/51/4
f 17/54/5 18/35/5 61/35/5 62/54/5
f 81/1/7 63/4/7 69/3/7 82/2/7
f 63/4/10 65/6/10 70/5/10 69/3/10
f 65/6/11 67/8/11 71/7/11 70/5/11
f 87/9/12 9/12/12 15/11/12 88/10/12
f 9/13/5 87/19/5 67/18/5 65/17/5 63/16/5 81/15/5 1/14/5
f 83/20/6 82/23/6 69/22/6 98/21/6
f 98/21/6 69/22/6 70/25/6 97/24/6
f 97/24/6 70/25/6 71/27/6 68/26/6
f 89/28/6 88/31/6 15/30/6 10/29/6
f 68/32/11 74/32/11 99/33/11 97/33/11
f 90/28/6 96/28/6 48/29/6 20/29/6
f 89/34/12 90/34/12 74/32/12 68/32/12
f 73/35/1 107/35/1 105/36/1 66/36/1
f 85/20/7 86/20/7 26/37/7 21/37/7
f 90/28/5 91/28/5 77/26/5 74/26/5
f 99/24/5 76/24/5 75/21/5 100/21/5
f 74/26/5 77/26/5 76/24/5 99/24/5
f 84/20/5 85/20/5 21/37/5 16/37/5
f 26/37/6 86/20/6 78/21/6 79/24/6 80/26/6 92/28/6 30/29/6
f 91/28/12 92/28/12 80/26/12 77/26/12
f 76/24/10 79/24/10 78/21/10 75/21/10
f 77/26/11 80/26/11 79/24/11 76/24/11
f 16/37/6 47/37/6 94/20/6 84/20/6
f 100/21/5 75/21/5 85/20/5 84/20/5
f 75/21/7 78/21/7 86/20/7 85/20/7
f 98/38/7 100/38/7 84/39/7 83/39/7
f 2/37/6 11/40/6 82/23/6 83/20/6
f 1/41/7 81/1/7 82/2/7 11/42/7
f 25/29/12 30/29/12 92/28/12 91/28/12
f 20/29/5 25/29/5 91/28/5 90/28/5
f 10/29/5 45/29/5 95/28/5 89/28/5
f 68/26/6 71/27/6 88/31/6 89/28/6
f 67/8/12 87/9/12 88/10/12 71/7/12
f 93/43/13 94/43/13 47/44/13 44/44/13
f 45/45/14 48/45/14 96/46/14 95/46/14
f 84/43/11 94/43/11 93/43/11 83/43/11
f 83/20/5 93/20/5 44/37/5 2/37/5
f 89/46/10 95/46/10 96/46/10 90/46/10
f 102/47/10 98/38/10 97/33/10 101/48/10
f 103/49/10 99/33/10 100/38/10 104/50/10
f 101/48/10 97/33/10 99/33/10 103/49/10
f 104/50/10 100/38/10 98/38/10 102/47/10
f 64/51/10 102/53/10 101/52/10 66/36/10
f 73/35/10 103/56/10 104/55/10 72/54/10
f 66/36/10 101/52/10 103/56/10 73/35/10
f 72/54/10 104/55/10 102/53/10 64/51/10
f 105/57/10 107/60/10 108/59/10 106/58/10
f 66/36/6 105/36/6 106/51/6 64/51/6
f 64/51/12 106/51/12 108/54/12 72/54/12
f 72/54/5 108/54/5 107/35/5 73/35/5
f 109/61/15 125/62/15 130/63/15
f 110/64/16 126/65/16 132/66/16
f 111/67/17 127/68/17 133/69/17
f 112/70/18 128/71/18 134/72/18
f 113/73/19 129/74/19 131/75/19
f 131/75/20 134/76/20 114/77/20
f 131/75/21 129/74/21 134/76/21
f 129/74/22 112/70/22 134/76/22
f 134/72/23 133/78/23 114/79/23
f 134/72/24 128/71/24 133/78/24
f 128/71/25 111/67/25 133/78/25
f 133/69/26 132/80/26 114/81/26
f 133/69/27 127/68/27 132/80/27
f 127/68/28 110/82/28 132/80/28
f 132/66/29 130/83/29 114/84/29
f 132/66/30 126/65/30 130/83/30
f 126/65/31 109/61/31 130/83/31
f 130/63/32 131/85/32 114/86/32
f 130/63/33 125/62/33 131/85/33
f 125/62/34 113/73/34 131/85/34
f 116/87/35 129/74/35 113/73/35
f 116/87/36 123/88/36 129/74/36
f 123/88/37 112/70/37 129/74/37
f 124/89/38 128/71/38 112/70/38
f 124/89/39 121/90/39 128/71/39
f 121/90/40 111/67/40 128/71/40
f 122/91/41 127/68/41 111/67/41
f 122/91/42 119/92/42 127/68/42
f 119/92/43 110/82/43 127/68/43
f 120/93/44 126/65/44 110/64/44
f 120/93/45 117/94/45 126/65/45
f 117/94/46 109/61/46 126/65/46
f 118/95/47 125/62/47 109/61/47
f 118/95/48 115/96/48 125/62/48
f 115/96/49 113/73/49 125/62/49
f 123/88/50 124/89/50 112/70/50
f 121/90/51 122/91/51 111/67/51
f 119/92/52 120/97/52 110/82/52
f 117/94/53 118/95/53 109/61/53
f 115/96/54 116/87/54 113/73/54
f 136/98/5 138/99/5 137/100/5 135/101/5
f 141/102/55 146/103/55 145/104/55 142/105/55
f 143/106/56 140/107/56 139/108/56 144/109/56
f 137/100/57 144/109/57 139/108/57 135/110/57
f 135/111/58 139/112/58 140/113/58 141/102/58 142/105/58 136/114/58
f 146/103/6 141/115/6 140/116/6 143/106/6
f 136/114/59 142/105/59 145/104/59 138/99/59
f 138/99/60 145/104/60 146/103/60 143/106/60 144/109/60 137/100/60
f 149/117/59 150/118/59 154/119/59 153/120/59
f 153/120/60 154/119/60 152/121/60 151/122/60
f 151/122/57 152/121/57 148/123/57 147/124/57
f 149/125/5 153/120/5 151/122/5 147/126/5
f 154/119/6 150/127/6 148/128/6 152/121/6
f 173/129/61 189/130/61 190/131/61 164/132/61
f 192/133/62 176/134/62 161/135/62 191/136/62
f 163/137/6 157/138/6 180/138/6 183/137/6
f 169/139/5 170/140/5 173/129/5 164/132/5 161/141/5 176/142/5
f 164/132/63 190/131/63 191/136/63 161/135/63
f 157/138/64 158/143/64 179/143/64 180/138/64
f 175/144/65 166/145/65 198/145/65 193/144/65
f 166/145/66 167/146/66 197/146/66 198/145/66
f 163/137/67 168/147/67 189/130/67 173/129/67
f 165/148/68 162/149/68 176/150/68 192/151/68
f 162/149/68 155/152/68 169/153/68 176/150/68
f 159/154/68 165/148/68 192/151/68 188/155/68
f 157/138/69 163/137/69 173/129/69 170/140/69
f 168/147/69 160/156/69 187/157/69 189/130/69
f 186/158/68 185/159/68 181/160/68 177/161/68 178/162/68
f 180/163/69 179/164/69 182/165/69 184/166/69 183/167/69
f 162/149/70 165/148/70 185/148/70 186/149/70
f 159/154/5 156/168/5 177/168/5 181/154/5
f 160/156/71 168/147/71 184/147/71 182/156/71
f 155/152/6 162/149/6 186/149/6 178/152/6
f 158/143/5 160/156/5 182/156/5 179/143/5
f 156/168/63 155/152/63 178/152/63 177/168/63
f 165/148/71 159/154/71 181/154/71 185/148/71
f 168/147/72 163/137/72 183/137/72 184/147/72
f 171/169/73 172/170/73 187/157/73 188/171/73
f 174/172/73 167/146/73 190/131/73 189/130/73
f 166/145/73 175/144/73 192/133/73 191/136/73
f 175/144/73 171/169/73 188/171/73 192/133/73
f 167/146/73 166/145/73 191/136/73 190/131/73
f 172/170/73 174/172/73 189/130/73 187/157/73
f 194/173/73 193/174/73 198/175/73 197/176/73
f 195/177/73 196/178/73 193/174/73 194/173/73
f 172/170/74 171/169/74 196/169/74 195/170/74
f 174/172/75 172/170/75 195/170/75 194/172/75
f 171/169/69 175/144/69 193/144/69 196/169/69
f 167/146/76 174/172/76 194/172/76 197/146/76
f 199/179/68 200/180/68 201/181/68
f 202/182/67 203/183/67 204/184/67
f 199/179/66 203/183/66 202/182/66 200/180/66
f 155/152/68 156/168/68 201/181/68 200/180/68 169/153/68
f 169/153/70 200/180/70 202/182/70 170/140/70
f 203/183/6 199/185/6 188/186/6 187/157/6
f 156/168/68 159/154/68 188/155/68 199/179/68 201/181/68
f 160/156/67 158/143/67 204/184/67 203/183/67 187/157/67
f 158/143/69 157/138/69 170/140/69 202/182/69 204/184/69
f 244/102/77 216/103/77 215/104/77 243/105/77
f 213/106/78 245/107/78 246/108/78 214/109/78
f 207/100/60 214/109/60 246/108/60 242/110/60
f 212/187/60 206/188/60 247/188/60 249/187/60
f 216/103/6 244/115/6 245/116/6 213/106/6
f 241/114/58 243/105/58 215/104/58 208/99/58
f 208/99/59 215/104/59 216/103/59 213/106/59 214/109/59 207/100/59
f 226/189/58 220/118/58 224/119/58 227/190/58
f 227/190/59 224/119/59 222/121/59 228/191/59
f 228/191/60 222/121/60 218/123/60 225/192/60
f 219/125/5 223/120/5 221/122/5 217/126/5
f 224/119/6 220/127/6 218/128/6 222/121/6
f 226/189/57 225/193/57 218/128/57 220/118/57
f 226/189/58 229/194/58 236/194/58 235/189/58
f 231/195/60 228/191/60 225/192/60 232/196/60
f 230/197/59 227/190/59 228/191/59 231/195/59
f 229/194/58 226/189/58 227/190/58 230/197/58
f 219/117/58 229/194/58 230/197/58 223/120/58
f 223/120/59 230/197/59 231/195/59 221/122/59
f 221/122/60 231/195/60 232/196/60 217/124/60
f 219/117/57 217/124/57 232/198/57 229/194/57
f 225/193/6 226/189/6 235/189/6 234/193/6
f 229/194/5 232/198/5 233/198/5 236/194/5
f 232/196/60 225/192/60 234/192/60 233/196/60
f 240/194/57 237/198/57 238/192/57 239/189/57
f 212/187/57 211/199/57 244/102/57 243/105/57
f 210/200/57 209/201/57 246/112/57 245/113/57
f 209/201/57 205/202/57 242/111/57 246/112/57
f 211/199/57 210/200/57 245/113/57 244/102/57
f 206/188/57 212/187/57 243/105/57 241/114/57
f 248/203/57 252/204/57 251/205/57 250/206/57 249/207/57 247/208/57
f 205/202/58 209/201/58 252/201/58 248/202/58
f 211/199/79 212/187/79 249/187/79 250/199/79
f 210/200/5 211/199/5 250/199/5 251/200/5
f 209/201/80 210/200/80 251/200/80 252/201/80
