# Blender 5.0.0
# www.blender.org
mtllib base.mtl
o base.010
v 15.604983 0.088745 0.000004
v 14.874186 2.838200 0.000004
v 13.361013 0.088745 5.417426
v 12.173088 3.498589 5.178682
v 7.943592 0.088745 7.661395
v 8.614766 3.498589 6.652587
v 2.526170 0.088745 5.417426
v 3.042923 2.838200 4.900673
v 0.282201 0.088745 0.000004
v 1.012999 2.838200 0.000004
v 15.604983 2.838200 0.000004
v 13.361013 2.838200 5.417426
v 7.943592 2.838200 7.661395
v 2.526170 2.838200 5.417426
v 0.282201 2.838200 0.000004
v 14.874186 7.176506 0.000004
v 12.173088 6.516117 5.178682
v 8.614766 6.516117 6.652587
v 3.042923 7.176506 4.900673
v 1.012999 7.176506 0.000004
v 15.567245 7.176506 0.000004
v 13.334328 7.176506 5.390740
v 7.943592 7.176506 7.623656
v 2.552856 7.176506 5.390740
v 0.319940 7.176506 0.000004
v 15.567245 9.163218 0.000004
v 13.334328 9.163218 5.390740
v 7.943592 9.163218 7.623656
v 2.552856 9.163218 5.390740
v 0.319940 9.163218 0.000004
v 14.482999 0.088745 2.708715
v 14.482999 2.838200 2.708715
v 13.859223 2.838200 2.450338
v 13.859223 7.176506 2.450338
v 14.450787 7.176506 2.695372
v 14.450787 9.163218 2.695372
v 1.404185 0.088745 2.708715
v 1.404185 2.838200 2.708715
v 2.027961 2.838200 2.450338
v 2.027961 7.176506 2.450338
v 1.436398 7.176506 2.695372
v 1.436398 9.163218 2.695372
v 14.178959 2.838200 2.582777
v 15.220264 2.838200 0.000004
v 0.666919 2.838200 0.000004
v 14.178959 7.176506 2.582777
v 15.220264 7.176506 0.000004
v 0.666919 7.176506 0.000004
v 1.708225 2.838200 2.582777
v 1.708225 7.176506 2.582777
v 7.943592 2.838200 6.930597
v 12.844261 2.838200 4.900673
v 7.943592 7.176506 6.930597
v 12.844261 7.176506 4.900673
v 8.290559 3.219109 6.786879
v 12.497295 3.219109 5.044391
v 8.290559 6.795598 6.786879
v 12.497295 6.795598 5.044391
v 8.480596 3.498589 6.328671
v 12.038918 3.498589 4.854766
v 8.480596 6.516117 6.328671
v 12.038918 6.516117 4.854766
v 13.361013 0.088745 -5.417418
v 12.173088 3.498589 -5.178675
v 7.943592 0.088745 -7.661387
v 8.614766 3.498589 -6.652580
v 2.526170 0.088745 -5.417418
v 3.042923 2.838200 -4.900665
v 13.361013 2.838200 -5.417418
v 7.943592 2.838200 -7.661387
v 2.526170 2.838200 -5.417418
v 12.173088 6.516117 -5.178675
v 8.614766 6.516117 -6.652580
v 3.042923 7.176506 -4.900665
v 13.334328 7.176506 -5.390732
v 7.943592 7.176506 -7.623649
v 2.552856 7.176506 -5.390732
v 13.334328 9.163218 -5.390732
v 7.943592 9.163218 -7.623649
v 2.552856 9.163218 -5.390732
v 14.482999 0.088745 -2.708707
v 14.482999 2.838200 -2.708707
v 13.859223 2.838200 -2.450331
v 13.859223 7.176506 -2.450331
v 14.450787 7.176506 -2.695364
v 14.450787 9.163218 -2.695364
v 1.404185 0.088745 -2.708707
v 1.404185 2.838200 -2.708707
v 2.027961 2.838200 -2.450331
v 2.027961 7.176506 -2.450331
v 1.436398 7.176506 -2.695364
v 1.436398 9.163218 -2.695364
v 14.178959 2.838200 -2.582770
v 14.178959 7.176506 -2.582770
v 1.708225 2.838200 -2.582770
v 1.708225 7.176506 -2.582770
v 7.943592 2.838200 -6.930589
v 12.844261 2.838200 -4.900665
v 7.943592 7.176506 -6.930589
v 12.844261 7.176506 -4.900665
v 8.290559 3.219109 -6.786871
v 12.497295 3.219109 -5.044384
v 8.290559 6.795598 -6.786871
v 12.497295 6.795598 -5.044384
v 8.480596 3.498589 -6.328664
v 12.038918 3.498589 -4.854759
v 8.480596 6.516117 -6.328664
v 12.038918 6.516117 -4.854759
v 9.840871 12.233171 5.839316
v 2.976369 12.233170 3.608865
v 2.976369 12.233170 -3.608853
v 9.840871 12.233171 -5.839305
v 14.083414 12.233142 0.000006
v 7.943596 16.027748 0.000006
v 14.472164 9.163216 2.121233
v 14.472164 9.163216 -2.121222
v 7.943596 9.163216 6.864539
v 11.978470 9.163216 5.553528
v 1.415027 9.163216 2.121233
v 3.908721 9.163216 5.553528
v 3.908721 9.163216 -5.553517
v 1.415027 9.163216 -2.121222
v 11.978470 9.163216 -5.553517
v 7.943596 9.163216 -6.864528
v 12.667694 12.772149 3.432251
v 6.139124 12.772160 5.553493
v 2.104295 12.772147 0.000006
v 6.139124 12.772160 -5.553482
v 12.667694 12.772149 -3.432240
v 9.058778 15.002562 3.432240
v 11.552485 15.002542 0.000006
v 5.023954 15.002560 2.121225
v 5.023954 15.002560 -2.121213
v 9.058778 15.002562 -3.432229
v 1.741532 0.451005 -2.387196
v 1.741531 0.451005 2.387201
v -10.025278 0.451005 -2.387199
v -10.025278 0.451005 2.387197
v 1.741532 5.486275 -2.387196
v 1.741532 6.068997 -1.804473
v 1.741531 6.068997 1.804478
v 1.741531 5.486275 2.387201
v -10.025278 6.068997 -1.804477
v -10.025278 5.486275 -2.387199
v -10.025278 5.486275 2.387197
v -10.025278 6.068997 1.804475
v 1.741532 0.088745 -2.710515
v 1.741532 1.451004 -2.710515
v 1.741531 0.088745 2.710521
v 1.741531 1.451004 2.710521
v -10.025270 0.088745 -2.710519
v -10.025270 1.451004 -2.710519
v -10.025272 0.088745 2.710517
v -10.025272 1.451004 2.710517
v -7.560143 1.371821 2.101516
v -7.560143 13.592107 2.101516
v -13.007921 1.371821 4.549362
v -13.007921 13.592108 4.549362
v -9.377300 13.592107 -1.942637
v -14.825077 13.592107 0.505208
v -12.085766 -0.088744 -4.411112
v -9.558588 1.371821 -2.346105
v -15.006367 1.371821 0.101741
v -14.872234 -0.088744 -3.159071
v -9.558588 13.149782 -2.346105
v -12.201868 12.746166 -3.865376
v -14.387093 12.746166 -2.883492
v -15.006367 13.149782 0.101741
v -6.961521 -0.088744 3.433771
v -12.409300 -0.088744 5.881617
v -10.390535 14.602464 -2.644182
v -14.676798 14.602464 -0.718239
v -15.604988 -0.088744 -1.230514
v -14.965584 13.897861 -1.360943
v -10.679319 13.897861 -3.286886
v -10.157209 -0.088744 -3.678360
v -8.008079 13.592107 2.302787
v -8.008079 1.371821 2.302787
v -12.559986 13.592108 4.348091
v -12.559986 1.371821 4.348091
v -9.825235 13.592107 -1.741367
v -14.377142 13.592107 0.303937
v -14.558432 1.371821 -0.099530
v -14.558432 13.149782 -0.099530
v -10.006523 13.149782 -2.144834
v -10.006523 1.371821 -2.144834
v -15.073034 15.052672 -0.046630
v -9.625257 15.052672 -2.494476
v -15.604988 13.754768 -1.230514
v -14.872234 12.295958 -3.159071
v -12.085766 12.295958 -4.411112
v -10.157209 13.754768 -3.678360
v -10.578915 13.652885 -3.063431
v -14.865179 13.652885 -1.137488
v -14.576393 14.357488 -0.494784
v -10.290131 14.357488 -2.420727
v -14.286688 12.501190 -2.660037
v -12.101463 12.501190 -3.641922
v -7.283628 15.052672 2.716912
v -6.961521 14.266772 3.433771
v -7.189284 14.496957 2.926875
v -12.409300 14.266772 5.881617
v -12.731405 15.052672 5.164757
v -12.637064 14.496957 5.374721
v -5.828569 1.451001 -5.430475
v -2.455185 1.451001 -5.430474
v -6.529076 1.451006 -1.484510
v -1.754680 1.451006 -1.484510
v -5.828569 5.023849 -5.430475
v -5.465659 5.386759 -5.430475
v -2.818095 5.386759 -5.430474
v -2.455185 5.023849 -5.430474
v -5.946354 6.068997 -1.484510
v -6.529076 5.486275 -1.484510
v -1.754680 5.486275 -1.484510
v -2.337402 6.068997 -1.484510
v -6.852396 0.088745 -5.625296
v -6.852396 1.451004 -6.565176
v -1.431359 0.088745 -5.625295
v -1.431359 1.451004 -6.565175
v -6.852396 0.088745 -1.484518
v -6.852396 1.451004 -1.484518
v -1.431360 0.088745 -1.484516
v -1.431360 1.451004 -1.484516
v -6.852396 0.769875 -6.565176
v -1.431359 0.769875 -6.565175
v -1.431360 0.769875 -1.484516
v -6.852396 0.769875 -1.484518
v -1.431359 0.429310 -5.625295
v -1.431360 0.429310 -1.484516
v -6.852396 0.429310 -1.484518
v -6.852396 0.429310 -5.625296
v -6.852396 0.429310 -7.539534
v -6.852396 0.769875 -7.539534
v -1.431359 0.769875 -7.539533
v -1.431359 0.429310 -7.539533
v -6.852396 0.429310 -7.580921
v -6.852396 0.769875 -7.580921
v -1.431359 0.769875 -7.580920
v -1.431359 0.429310 -7.580920
v -1.754679 1.451006 -5.430474
v -6.529076 1.451006 -5.430475
v -1.754679 5.486275 -5.430474
v -2.337402 6.068997 -5.430474
v -5.946353 6.068997 -5.430475
v -6.529076 5.486275 -5.430475
v -2.455185 1.451001 -5.186963
v -5.828569 1.451001 -5.186964
v -2.455185 5.023849 -5.186963
v -2.818095 5.386759 -5.186963
v -5.465659 5.386759 -5.186964
v -5.828569 5.023849 -5.186964
vn 0.9239 -0.0000 0.3827
vn 0.3827 -0.0000 0.9239
vn -0.3827 -0.0000 0.9239
vn -0.9239 -0.0000 0.3827
vn -0.0000 -1.0000 -0.0000
vn -0.0000 1.0000 -0.0000
vn 0.9239 -0.0000 -0.3827
vn 0.9275 -0.0000 0.3739
vn -0.9275 -0.0000 0.3739
vn 0.3827 -0.0000 -0.9239
vn -0.3827 -0.0000 -0.9239
vn -0.9239 -0.0000 -0.3827
vn 0.9275 -0.0000 -0.3739
vn -0.9275 -0.0000 -0.3739
vn 0.4089 0.6617 0.6284
vn -0.4713 0.6617 0.5831
vn -0.7002 0.6617 -0.2680
vn 0.0385 0.6617 -0.7488
vn 0.7240 0.6617 -0.1947
vn 0.2680 0.9435 -0.1947
vn 0.4911 0.7947 -0.3568
vn 0.4089 0.6617 -0.6284
vn -0.1024 0.9435 -0.3151
vn -0.1876 0.7947 -0.5773
vn -0.4713 0.6617 -0.5831
vn -0.3313 0.9435 -0.0000
vn -0.6071 0.7947 -0.0000
vn -0.7002 0.6617 0.2680
vn -0.1024 0.9435 0.3151
vn -0.1876 0.7947 0.5773
vn 0.0385 0.6617 0.7488
vn 0.2680 0.9435 0.1947
vn 0.4911 0.7947 0.3568
vn 0.7240 0.6617 0.1947
vn 0.8897 0.3304 -0.3151
vn 0.7947 0.1876 -0.5773
vn 0.5746 0.3304 -0.7488
vn -0.0247 0.3304 -0.9435
vn -0.3035 0.1876 -0.9342
vn -0.5346 0.3304 -0.7779
vn -0.9050 0.3304 -0.2680
vn -0.9822 0.1876 -0.0000
vn -0.9050 0.3304 0.2680
vn -0.5346 0.3304 0.7779
vn -0.3035 0.1876 0.9342
vn -0.0247 0.3304 0.9435
vn 0.5746 0.3304 0.7488
vn 0.7947 0.1876 0.5773
vn 0.8897 0.3304 0.3151
vn 0.3066 0.1256 -0.9435
vn -0.8026 0.1256 -0.5831
vn -0.8026 0.1256 0.5831
vn 0.3066 0.1256 0.9435
vn 0.9921 0.1256 -0.0000
vn -0.0000 0.7071 0.7071
vn -0.0000 0.7071 -0.7071
vn -0.0000 -0.0000 -1.0000
vn 1.0000 -0.0000 -0.0000
vn -0.0000 -0.0000 1.0000
vn -1.0000 -0.0000 -0.0000
vn -0.9348 -0.0000 -0.3552
vn 0.3552 -0.0000 -0.9348
vn -0.4099 -0.0000 -0.9122
vn -0.5774 0.4082 0.7070
vn 0.2898 0.7071 0.6450
vn -0.9122 -0.0000 0.4099
vn 0.9122 -0.0000 -0.4099
vn 0.4099 -0.0000 0.9122
vn 0.2898 -0.7071 0.6450
vn 0.4099 -0.0000 0.9121
vn -0.2898 0.7071 -0.6450
vn -0.2898 -0.7071 -0.6450
vn 0.9121 -0.0000 -0.4099
vn 0.9121 0.4082 0.0377
vn -0.9121 -0.0000 0.4099
vn 0.7071 0.7071 -0.0000
vn -0.7071 0.7071 -0.0000
vn -0.7071 -0.7071 -0.0000
vn 0.7071 -0.7071 -0.0000
vt 0.868783 0.366181
vt 0.868783 0.380853
vt 0.866949 0.380853
vt 0.866949 0.366181
vt 0.863281 0.380853
vt 0.863281 0.366181
vt 0.859613 0.380853
vt 0.859613 0.366181
vt 0.857779 0.366181
vt 0.857779 0.380853
vt 0.855945 0.380853
vt 0.855945 0.366181
vt 0.863575 0.358845
vt 0.877660 0.358845
vt 0.876628 0.356356
vt 0.875597 0.353866
vt 0.870617 0.351803
vt 0.865637 0.353866
vt 0.864606 0.356356
vt 0.861383 0.356593
vt 0.860450 0.354341
vt 0.860925 0.353866
vt 0.861956 0.356356
vt 0.855945 0.352475
vt 0.855945 0.351803
vt 0.851441 0.354341
vt 0.850965 0.353866
vt 0.850508 0.356593
vt 0.849575 0.358845
vt 0.848903 0.358845
vt 0.849934 0.356356
vt 0.642456 0.871919
vt 0.646961 0.870053
vt 0.641523 0.874171
vt 0.860468 0.348824
vt 0.860468 0.348824
vt 0.862316 0.358845
vt 0.651466 0.871919
vt 0.652399 0.874171
vt 0.862988 0.358845
vt 0.870617 0.366181
vt 0.870617 0.380853
vt 0.880914 0.387843
vt 0.881847 0.390095
vt 0.869106 0.390095
vt 0.870039 0.387843
vt 0.651147 0.871787
vt 0.647280 0.870185
vt 0.647280 0.870185
vt 0.651147 0.871787
vt 0.863739 0.350179
vt 0.860170 0.348701
vt 0.864037 0.350302
vt 0.863739 0.350179
vt 0.864037 0.350302
vt 0.860170 0.348701
vt 0.327265 0.862496
vt 0.330536 0.863851
vt 0.330536 0.863851
vt 0.327265 0.862496
vt 0.594536 0.888023
vt 0.602325 0.888023
vt 0.598430 0.894769
vt 0.578957 0.888023
vt 0.586746 0.888023
vt 0.582852 0.894769
vt 0.641271 0.888023
vt 0.649061 0.888023
vt 0.645166 0.894769
vt 0.625693 0.888023
vt 0.633482 0.888023
vt 0.629587 0.894769
vt 0.610114 0.888023
vt 0.617904 0.888023
vt 0.614009 0.894769
vt 0.621798 0.894769
vt 0.617904 0.901514
vt 0.637377 0.894769
vt 0.633482 0.901514
vt 0.652955 0.894769
vt 0.649061 0.901514
vt 0.656850 0.888023
vt 0.590641 0.894769
vt 0.586747 0.901514
vt 0.606220 0.894769
vt 0.602325 0.901514
vt 0.614009 0.881277
vt 0.621798 0.881277
vt 0.629587 0.881277
vt 0.637377 0.881277
vt 0.645166 0.881277
vt 0.652955 0.881277
vt 0.582852 0.881277
vt 0.590641 0.881277
vt 0.598430 0.881277
vt 0.606220 0.881277
vt 0.660745 0.881277
vt 0.582528 0.861196
vt 0.607086 0.861196
vt 0.607086 0.885754
vt 0.582528 0.885754
vt 0.631644 0.835139
vt 0.631644 0.863194
vt 0.628647 0.861196
vt 0.628647 0.836637
vt 0.631644 0.883756
vt 0.631644 0.910312
vt 0.628647 0.910312
vt 0.628647 0.885754
vt 0.607086 0.910312
vt 0.607086 0.812079
vt 0.628647 0.812079
vt 0.631644 0.815076
vt 0.607086 0.836637
vt 0.656203 0.864193
vt 0.656203 0.882757
vt 0.885428 0.329886
vt 0.895871 0.329886
vt 0.895871 0.340330
vt 0.885428 0.340330
vt 0.895871 0.350773
vt 0.885428 0.350773
vt 0.895871 0.361217
vt 0.885428 0.361217
vt 0.874984 0.340330
vt 0.874984 0.350773
vt 0.906315 0.340330
vt 0.906315 0.350773
vt 0.856618 0.397377
vt 0.873492 0.398346
vt 0.871714 0.404794
vt 0.855115 0.403291
vt 0.872603 0.418742
vt 0.856618 0.418742
vt 0.856618 0.414234
vt 0.871714 0.414234
vt 0.858399 0.394544
vt 0.858398 0.384779
vt 0.838162 0.381829
vt 0.856618 0.381829
vt 0.842670 0.400286
vt 0.838162 0.397377
vt 0.873294 0.385040
vt 0.872955 0.416537
vt 0.872061 0.413057
vt 0.872190 0.405372
vt 0.872755 0.395518
vt 0.872755 0.350738
vt 0.858399 0.350738
vt 0.856618 0.347826
vt 0.873492 0.347826
vt 0.858398 0.360461
vt 0.856618 0.363373
vt 0.873294 0.351620
vt 0.875075 0.350414
vt 0.873294 0.394752
vt 0.875075 0.396621
vt 0.608817 0.863853
vt 0.623173 0.863853
vt 0.623713 0.864735
vt 0.623713 0.873576
vt 0.608817 0.873576
vt 0.608817 0.897894
vt 0.623713 0.898155
vt 0.623713 0.907867
vt 0.623173 0.908633
vt 0.608817 0.907659
vt 0.873294 0.360461
vt 0.874255 0.416456
vt 0.874488 0.399505
vt 0.875075 0.418742
vt 0.873588 0.400361
vt 0.637958 0.874721
vt 0.637325 0.890897
vt 0.636431 0.887417
vt 0.636561 0.879732
vt 0.638858 0.873865
vt 0.638625 0.890817
vt 0.874915 0.362589
vt 0.874117 0.363373
vt 0.874397 0.362265
vt 0.874117 0.381829
vt 0.874955 0.382940
vt 0.874397 0.383051
vt 0.893531 0.383396
vt 0.893531 0.394789
vt 0.628218 0.835879
vt 0.608081 0.835686
vt 0.890649 0.329886
vt 0.890649 0.340330
vt 0.890649 0.350773
vt 0.890649 0.361217
vt 0.895871 0.355995
vt 0.888039 0.329886
vt 0.888039 0.350773
vt 0.888039 0.361217
vt 0.888039 0.340330
vt 0.890649 0.358606
vt 0.630667 0.834456
vt 0.630667 0.815514
vt 0.628218 0.813051
vt 0.608081 0.813043
vt 0.860763 0.130957
vt 0.880900 0.130964
vt 0.883349 0.133427
vt 0.883349 0.152369
vt 0.880900 0.153793
vt 0.860763 0.153600
s 0
usemtl Lander
f 31/1/1 32/2/1 12/3/1 3/4/1
f 3/4/2 12/3/2 13/5/2 5/6/2
f 5/6/3 13/5/3 14/7/3 7/8/3
f 37/9/4 38/10/4 15/11/4 9/12/4
f 9/13/5 1/14/5 31/15/5 3/16/5 5/17/5 7/18/5 37/19/5
f 33/20/6 52/21/6 12/22/6 32/23/6
f 52/21/6 51/24/6 13/25/6 12/22/6
f 51/24/6 8/26/6 14/27/6 13/25/6
f 39/28/6 10/29/6 15/30/6 38/31/6
f 8/32/3 51/33/3 53/33/3 19/32/3
f 40/28/6 20/29/6 48/29/6 50/28/6
f 39/34/4 8/32/4 19/32/4 40/34/4
f 18/35/7 6/36/7 59/36/7 61/35/7
f 35/20/1 21/37/1 26/37/1 36/20/1
f 40/28/5 19/26/5 24/26/5 41/28/5
f 53/24/5 54/21/5 22/21/5 23/24/5
f 19/26/5 53/24/5 23/24/5 24/26/5
f 34/20/5 16/37/5 21/37/5 35/20/5
f 26/37/6 30/29/6 42/28/6 29/26/6 28/24/6 27/21/6 36/20/6
f 41/28/4 24/26/4 29/26/4 42/28/4
f 23/24/2 22/21/2 27/21/2 28/24/2
f 24/26/3 23/24/3 28/24/3 29/26/3
f 16/37/6 34/20/6 46/20/6 47/37/6
f 54/21/5 34/20/5 35/20/5 22/21/5
f 22/21/1 35/20/1 36/20/1 27/21/1
f 52/38/1 33/39/1 34/39/1 54/38/1
f 2/37/6 33/20/6 32/23/6 11/40/6
f 1/41/1 11/42/1 32/2/1 31/1/1
f 25/29/4 41/28/4 42/28/4 30/29/4
f 20/29/5 40/28/5 41/28/5 25/29/5
f 10/29/5 39/28/5 49/28/5 45/29/5
f 8/26/6 39/28/6 38/31/6 14/27/6
f 7/8/4 14/7/4 38/10/4 37/9/4
f 43/43/8 44/44/8 47/44/8 46/43/8
f 45/45/9 49/46/9 50/46/9 48/45/9
f 34/43/3 33/43/3 43/43/3 46/43/3
f 33/20/5 2/37/5 44/37/5 43/20/5
f 39/46/2 40/46/2 50/46/2 49/46/2
f 56/47/2 55/48/2 51/33/2 52/38/2
f 57/49/2 58/50/2 54/38/2 53/33/2
f 55/48/2 57/49/2 53/33/2 51/33/2
f 58/50/2 56/47/2 52/38/2 54/38/2
f 4/51/2 6/36/2 55/52/2 56/53/2
f 18/35/2 17/54/2 58/55/2 57/56/2
f 6/36/2 18/35/2 57/56/2 55/52/2
f 17/54/2 4/51/2 56/53/2 58/55/2
f 59/57/2 60/58/2 62/59/2 61/60/2
f 6/36/6 4/51/6 60/51/6 59/36/6
f 4/51/4 17/54/4 62/54/4 60/51/4
f 17/54/5 18/35/5 61/35/5 62/54/5
f 81/1/7 63/4/7 69/3/7 82/2/7
f 63/4/10 65/6/10 70/5/10 69/3/10
f 65/6/11 67/8/11 71/7/11 70/5/11
f 87/9/12 9/12/12 15/11/12 88/10/12
f 9/13/5 87/19/5 67/18/5 65/17/5 63/16/5 81/15/5 1/14/5
f 83/20/6 82/23/6 69/22/6 98/21/6
f 98/21/6 69/22/6 70/25/6 97/24/6
f 97/24/6 70/25/6 71/27/6 68/26/6
f 89/28/6 88/31/6 15/30/6 10/29/6
f 68/32/11 74/32/11 99/33/11 97/33/11
f 90/28/6 96/28/6 48/29/6 20/29/6
f 89/34/12 90/34/12 74/32/12 68/32/12
f 73/35/1 107/35/1 105/36/1 66/36/1
f 85/20/7 86/20/7 26/37/7 21/37/7
f 90/28/5 91/28/5 77/26/5 74/26/5
f 99/24/5 76/24/5 75/21/5 100/21/5
f 74/26/5 77/26/5 76/24/5 99/24/5
f 84/20/5 85/20/5 21/37/5 16/37/5
f 26/37/6 86/20/6 78/21/6 79/24/6 80/26/6 92/28/6 30/29/6
f 91/28/12 92/28/12 80/26/12 77/26/12
f 76/24/10 79/24/10 78/21/10 75/21/10
f 77/26/11 80/26/11 79/24/11 76/24/11
f 16/37/6 47/37/6 94/20/6 84/20/6
f 100/21/5 75/21/5 85/20/5 84/20/5
f 75/21/7 78/21/7 86/20/7 85/20/7
f 98/38/7 100/38/7 84/39/7 83/39/7
f 2/37/6 11/40/6 82/23/6 83/20/6
f 1/41/7 81/1/7 82/2/7 11/42/7
f 25/29/12 30/29/12 92/28/12 91/28/12
f 20/29/5 25/29/5 91/28/5 90/28/5
f 10/29/5 45/29/5 95/28/5 89/28/5
f 68/26/6 71/27/6 88/31/6 89/28/6
f 67/8/12 87/9/12 88/10/12 71/7/12
f 93/43/13 94/43/13 47/44/13 44/44/13
f 45/45/14 48/45/14 96/46/14 95/46/14
f 84/43/11 94/43/11 93/43/11 83/43/11
f 83/20/5 93/20/5 44/37/5 2/37/5
f 89/46/10 95/46/10 96/46/10 90/46/10
f 102/47/10 98/38/10 97/33/10 101/48/10
f 103/49/10 99/33/10 100/38/10 104/50/10
f 101/48/10 97/33/10 99/33/10 103/49/10
f 104/50/10 100/38/10 98/38/10 102/47/10
f 64/51/10 102/53/10 101/52/10 66/36/10
f 73/35/10 103/56/10 104/55/10 72/54/10
f 66/36/10 101/52/10 103/56/10 73/35/10
f 72/54/10 104/55/10 102/53/10 64/51/10
f 105/57/10 107/60/10 108/59/10 106/58/10
f 66/36/6 105/36/6 106/51/6 64/51/6
f 64/51/12 106/51/12 108/54/12 72/54/12
f 72/54/5 108/54/5 107/35/5 73/35/5
f 109/61/15 125/62/15 130/63/15
f 110/64/16 126/65/16 132/66/16
f 111/67/17 127/68/17 133/69/17
f 112/70/18 128/71/18 134/72/18
f 113/73/19 129/74/19 131/75/19
f 131/75/20 134/76/20 114/77/20
f 131/75/21 129/74/21 134/76/21
f 129/74/22 112/70/22 134/76/22
f 134/72/23 133/78/23 114/79/23
f 134/72/24 128/71/24 133/78/24
f 128/71/25 111/67/25 133/78/25
f 133/69/26 132/80/26 114/81/26
f 133/69/27 127/68/27 132/80/27
f 127/68/28 110/82/28 132/80/28
f 132/66/29 130/83/29 114/84/29
f 132/66/30 126/65/30 130/83/30
f 126/65/31 109/61/31 130/83/31
f 130/63/32 131/85/32 114/86/32
f 130/63/33 125/62/33 131/85/33
f 125/62/34 113/73/34 131/85/34
f 116/87/35 129/74/35 113/73/35
f 116/87/36 123/88/36 129/74/36
f 123/88/37 112/70/37 129/74/37
f 124/89/38 128/71/38 112/70/38
f 124/89/39 121/90/39 128/71/39
f 121/90/40 111/67/40 128/71/40
f 122/91/41 127/68/41 111/67/41
f 122/91/42 119/92/42 127/68/42
f 119/92/43 110/82/43 127/68/43
f 120/93/44 126/65/44 110/64/44
f 120/93/45 117/94/45 126/65/45
f 117/94/46 109/61/46 126/65/46
f 118/95/47 125/62/47 109/61/47
f 118/95/48 115/96/48 125/62/48
f 115/96/49 113/73/49 125/62/49
f 123/88/50 124/89/50 112/70/50
f 121/90/51 122/91/51 111/67/51
f 119/92/52 120/97/52 110/82/52
f 117/94/53 118/95/53 109/61/53
f 115/96/54 116/87/54 113/73/54
f 136/98/5 138/99/5 137/100/5 135/101/5
f 141/102/55 146/103/55 145/104/55 142/105/55
f 143/106/56 140/107/56 139/108/56 144/109/56
f 137/100/57 144/109/57 139/108/57 135/110/57
f 135/111/58 139/112/58 140/113/58 141/102/58 142/105/58 136/114/58
f 146/103/6 141/115/6 140/116/6 143/106/6
f 136/114/59 142/105/59 145/104/59 138/99/59
f 138/99/60 145/104/60 146/103/60 143/106/60 144/109/60 137/100/60
f 149/117/59 150/118/59 154/119/59 153/120/59
f 153/120/60 154/119/60 152/121/60 151/122/60
f 151/122/57 152/121/57 148/123/57 147/124/57
f 149/125/5 153/120/5 151/122/5 147/126/5
f 154/119/6 150/127/6 148/128/6 152/121/6
f 173/129/61 189/130/61 190/131/61 164/132/61
f 192/133/62 176/134/62 161/135/62 191/136/62
f 163/137/6 157/138/6 180/138/6 183/137/6
f 169/139/5 170/140/5 173/129/5 164/132/5 161/141/5 176/142/5
f 164/132/63 190/131/63 191/136/63 161/135/63
f 157/138/63 158/143/63 179/143/63 180/138/63
f 175/144/64 166/145/64 198/145/64 193/144/64
f 166/145/65 167/146/65 197/146/65 198/145/65
f 163/137/66 168/147/66 189/130/66 173/129/66
f 165/148/67 162/149/67 176/150/67 192/151/67
f 162/149/67 155/152/67 169/153/67 176/150/67
f 159/154/67 165/148/67 192/151/67 188/155/67
f 157/138/66 163/137/66 173/129/66 170/140/66
f 168/147/66 160/156/66 187/157/66 189/130/66
f 186/158/67 185/159/67 181/160/67 177/161/67 178/162/67
f 180/163/66 179/164/66 182/165/66 184/166/66 183/167/66
f 162/149/68 165/148/68 185/148/68 186/149/68
f 159/154/5 156/168/5 177/168/5 181/154/5
f 160/156/69 168/147/69 184/147/69 182/156/69
f 155/152/6 162/149/6 186/149/6 178/152/6
f 158/143/5 160/156/5 182/156/5 179/143/5
f 156/168/63 155/152/63 178/152/63 177/168/63
f 165/148/69 159/154/69 181/154/69 185/148/69
f 168/147/70 163/137/70 183/137/70 184/147/70
f 171/169/71 172/170/71 187/157/71 188/171/71
f 174/172/71 167/146/71 190/131/71 189/130/71
f 166/145/71 175/144/71 192/133/71 191/136/71
f 175/144/71 171/169/71 188/171/71 192/133/71
f 167/146/71 166/145/71 191/136/71 190/131/71
f 172/170/71 174/172/71 189/130/71 187/157/71
f 194/173/71 193/174/71 198/175/71 197/176/71
f 195/177/71 196/178/71 193/174/71 194/173/71
f 172/170/72 171/169/72 196/169/72 195/170/72
f 174/172/73 172/170/73 195/170/73 194/172/73
f 171/169/66 175/144/66 193/144/66 196/169/66
f 167/146/74 174/172/74 194/172/74 197/146/74
f 199/179/67 200/180/67 201/181/67
f 202/182/75 203/183/75 204/184/75
f 199/179/65 203/183/65 202/182/65 200/180/65
f 155/152/67 156/168/67 201/181/67 200/180/67 169/153/67
f 169/153/68 200/180/68 202/182/68 170/140/68
f 203/183/6 199/185/6 188/186/6 187/157/6
f 156/168/67 159/154/67 188/155/67 199/179/67 201/181/67
f 160/156/66 158/143/66 204/184/66 203/183/66 187/157/66
f 158/143/66 157/138/66 170/140/66 202/182/66 204/184/66
f 244/102/76 216/103/76 215/104/76 243/105/76
f 213/106/77 245/107/77 246/108/77 214/109/77
f 207/100/60 214/109/60 246/108/60 242/110/60
f 212/187/60 206/188/60 247/188/60 249/187/60
f 216/103/6 244/115/6 245/116/6 213/106/6
f 241/114/58 243/105/58 215/104/58 208/99/58
f 208/99/59 215/104/59 216/103/59 213/106/59 214/109/59 207/100/59
f 226/189/58 220/118/58 224/119/58 227/190/58
f 227/190/59 224/119/59 222/121/59 228/191/59
f 228/191/60 222/121/60 218/123/60 225/192/60
f 219/125/5 223/120/5 221/122/5 217/126/5
f 224/119/6 220/127/6 218/128/6 222/121/6
f 226/189/57 225/193/57 218/128/57 220/118/57
f 226/189/58 229/194/58 236/194/58 235/189/58
f 231/195/60 228/191/60 225/192/60 232/196/60
f 230/197/59 227/190/59 228/191/59 231/195/59
f 229/194/58 226/189/58 227/190/58 230/197/58
f 219/117/58 229/194/58 230/197/58 223/120/58
f 223/120/59 230/197/59 231/195/59 221/122/59
f 221/122/60 231/195/60 232/196/60 217/124/60
f 219/117/57 217/124/57 232/198/57 229/194/57
f 225/193/6 226/189/6 235/189/6 234/193/6
f 229/194/5 232/198/5 233/198/5 236/194/5
f 232/196/60 225/192/60 234/192/60 233/196/60
f 240/194/57 237/198/57 238/192/57 239/189/57
f 212/187/57 211/199/57 244/102/57 243/105/57
f 210/200/57 209/201/57 246/112/57 245/113/57
f 209/201/57 205/202/57 242/111/57 246/112/57
f 211/199/57 210/200/57 245/113/57 244/102/57
f 206/188/57 212/187/57 243/105/57 241/114/57
f 248/203/57 252/204/57 251/205/57 250/206/57 249/207/57 247/208/57
f 205/202/58 209/201/58 252/201/58 248/202/58
f 211/199/78 212/187/78 249/187/78 250/199/78
f 210/200/5 211/199/5 250/199/5 251/200/5
f 209/201/79 210/200/79 251/200/79 252/201/79
